HIERARCHY
ROOT Hips
{
	OFFSET 0.000000 103.266502 0.000000
	CHANNELS 6 Xposition Yposition Zposition Xrotation Yrotation Zrotation 
	JOINT Spine
	{
		OFFSET -0.002400 12.777504 0.315300
		CHANNELS 3 Xrotation Yrotation Zrotation
		JOINT Spine1
		{
			OFFSET -0.002067 5.816869 0.032633
			CHANNELS 3 Xrotation Yrotation Zrotation
			JOINT Spine1_split
			{
				OFFSET -0.002067 5.816869 0.032633
				CHANNELS 3 Xrotation Yrotation Zrotation
				JOINT Spine2
				{
					OFFSET -0.002067 5.816869 0.032633
					CHANNELS 3 Xrotation Yrotation Zrotation
					JOINT Neck
					{
						OFFSET -0.003700 21.199493 -0.826900
						CHANNELS 3 Xrotation Yrotation Zrotation
						JOINT Head
						{
							OFFSET 0.000000 20.442200 4.834800
							CHANNELS 3 Xrotation Yrotation Zrotation
							JOINT HeadTop_End
							{
								OFFSET 0.000000 34.668396 4.968400
								CHANNELS 3 Xrotation Yrotation Zrotation
								End Site
								{
									OFFSET 0.000000 0.000000 0.000000
								}
							}
						}
					}
					JOINT LeftShoulder
					{
						OFFSET 3.288150 8.794197 -1.372250
						CHANNELS 3 Xrotation Yrotation Zrotation
						JOINT LeftShoulder_split
						{
							OFFSET 3.288150 8.794197 -1.372250
							CHANNELS 3 Xrotation Yrotation Zrotation
							JOINT LeftArm
							{
								OFFSET 11.953299 -2.279007 -0.146200
								CHANNELS 3 Xrotation Yrotation Zrotation
								JOINT LeftForeArm
								{
									OFFSET 18.448900 0.000000 0.000000
									CHANNELS 3 Xrotation Yrotation Zrotation
									JOINT LeftHand
									{
										OFFSET 29.527798 0.000000 0.000000
										CHANNELS 3 Xrotation Yrotation Zrotation
										JOINT LeftHandThumb1
										{
											OFFSET 10.739754 -2.369614 9.225399
											CHANNELS 3 Xrotation Yrotation Zrotation
											JOINT LeftHandThumb2
											{
												OFFSET 4.926170 -2.844131 2.844125
												CHANNELS 3 Xrotation Yrotation Zrotation
												JOINT LeftHandThumb3
												{
													OFFSET 4.614891 -2.664413 2.664409
													CHANNELS 3 Xrotation Yrotation Zrotation
													JOINT LeftHandThumb4
													{
														OFFSET 4.432465 -2.559082 2.559083
														CHANNELS 3 Xrotation Yrotation Zrotation
														End Site
														{
															OFFSET 0.000000 0.000000 0.000000
														}
													}
												}
											}
										}
										JOINT LeftHandIndex1
										{
											OFFSET 26.467674 0.187653 6.405298
											CHANNELS 3 Xrotation Yrotation Zrotation
											JOINT LeftHandIndex2
											{
												OFFSET 8.792900 0.000000 0.000000
												CHANNELS 3 Xrotation Yrotation Zrotation
												JOINT LeftHandIndex3
												{
													OFFSET 10.075203 0.000000 0.000000
													CHANNELS 3 Xrotation Yrotation Zrotation
													End Site
													{
														OFFSET 0.000000 0.000000 0.000000
													}
												}
											}
										}
										JOINT LeftHandMiddle1
										{
											OFFSET 25.764404 0.000000 0.000000
											CHANNELS 3 Xrotation Yrotation Zrotation
											JOINT LeftHandMiddle2
											{
												OFFSET 9.393974 0.000000 0.000000
												CHANNELS 3 Xrotation Yrotation Zrotation
												JOINT LeftHandMiddle3
												{
													OFFSET 10.771950 0.000000 0.000000
													CHANNELS 3 Xrotation Yrotation Zrotation
													End Site
													{
														OFFSET 0.000000 0.000000 0.000000
													}
												}
											}
										}
										JOINT LeftHandRing1
										{
											OFFSET 24.660927 0.144547 -6.225808
											CHANNELS 3 Xrotation Yrotation Zrotation
											JOINT LeftHandRing2
											{
												OFFSET 9.393799 0.000000 0.000000
												CHANNELS 3 Xrotation Yrotation Zrotation
												JOINT LeftHandRing3
												{
													OFFSET 9.928497 0.000000 0.000000
													CHANNELS 3 Xrotation Yrotation Zrotation
													End Site
													{
														OFFSET 0.000000 0.000000 0.000000
													}
												}
											}
										}
										JOINT LeftHandPinky1
										{
											OFFSET 23.655350 0.125290 -12.815412
											CHANNELS 3 Xrotation Yrotation Zrotation
											JOINT LeftHandPinky2
											{
												OFFSET 8.425102 0.000000 0.000000
												CHANNELS 3 Xrotation Yrotation Zrotation
												JOINT LeftHandPinky3
												{
													OFFSET 8.147003 0.000000 0.000000
													CHANNELS 3 Xrotation Yrotation Zrotation
													End Site
													{
														OFFSET 0.000000 0.000000 0.000000
													}
												}
											}
										}
									}
								}
							}
						}
					}
					JOINT RightShoulder
					{
						OFFSET -3.249400 8.794197 -1.372250
						CHANNELS 3 Xrotation Yrotation Zrotation
						JOINT RightShoulder_split
						{
							OFFSET -3.249400 8.794197 -1.372250
							CHANNELS 3 Xrotation Yrotation Zrotation
							JOINT RightArm
							{
								OFFSET -11.953299 -2.279007 -0.146200
								CHANNELS 3 Xrotation Yrotation Zrotation
								JOINT RightForeArm
								{
									OFFSET -18.448900 0.000000 0.000000
									CHANNELS 3 Xrotation Yrotation Zrotation
									JOINT RightHand
									{
										OFFSET -29.527802 0.000000 0.000000
										CHANNELS 3 Xrotation Yrotation Zrotation
										JOINT RightHandThumb1
										{
											OFFSET -10.739754 -2.369614 9.225399
											CHANNELS 3 Xrotation Yrotation Zrotation
											JOINT RightHandThumb2
											{
												OFFSET -4.926170 -2.844131 2.844125
												CHANNELS 3 Xrotation Yrotation Zrotation
												JOINT RightHandThumb3
												{
													OFFSET -4.614891 -2.664413 2.664409
													CHANNELS 3 Xrotation Yrotation Zrotation
													JOINT RightHandThumb4
													{
														OFFSET -4.432465 -2.559082 2.559083
														CHANNELS 3 Xrotation Yrotation Zrotation
														End Site
														{
															OFFSET 0.000000 0.000000 0.000000
														}
													}
												}
											}
										}
										JOINT RightHandIndex1
										{
											OFFSET -26.467674 0.187653 6.405298
											CHANNELS 3 Xrotation Yrotation Zrotation
											JOINT RightHandIndex2
											{
												OFFSET -8.792900 0.000000 0.000000
												CHANNELS 3 Xrotation Yrotation Zrotation
												JOINT RightHandIndex3
												{
													OFFSET -10.075203 0.000000 0.000000
													CHANNELS 3 Xrotation Yrotation Zrotation
													End Site
													{
														OFFSET 0.000000 0.000000 0.000000
													}
												}
											}
										}
										JOINT RightHandMiddle1
										{
											OFFSET -25.764404 0.000000 0.000000
											CHANNELS 3 Xrotation Yrotation Zrotation
											JOINT RightHandMiddle2
											{
												OFFSET -9.393974 0.000000 0.000000
												CHANNELS 3 Xrotation Yrotation Zrotation
												JOINT RightHandMiddle3
												{
													OFFSET -10.771950 0.000000 0.000000
													CHANNELS 3 Xrotation Yrotation Zrotation
													End Site
													{
														OFFSET 0.000000 0.000000 0.000000
													}
												}
											}
										}
										JOINT RightHandRing1
										{
											OFFSET -24.660927 0.144547 -6.225808
											CHANNELS 3 Xrotation Yrotation Zrotation
											JOINT RightHandRing2
											{
												OFFSET -9.393799 0.000000 0.000000
												CHANNELS 3 Xrotation Yrotation Zrotation
												JOINT RightHandRing3
												{
													OFFSET -9.928497 0.000000 0.000000
													CHANNELS 3 Xrotation Yrotation Zrotation
													End Site
													{
														OFFSET 0.000000 0.000000 0.000000
													}
												}
											}
										}
										JOINT RightHandPinky1
										{
											OFFSET -23.655350 0.125290 -12.815412
											CHANNELS 3 Xrotation Yrotation Zrotation
											JOINT RightHandPinky2
											{
												OFFSET -8.425102 0.000000 0.000000
												CHANNELS 3 Xrotation Yrotation Zrotation
												JOINT RightHandPinky3
												{
													OFFSET -8.147003 0.000000 0.000000
													CHANNELS 3 Xrotation Yrotation Zrotation
													End Site
													{
														OFFSET 0.000000 0.000000 0.000000
													}
												}
											}
										}
									}
								}
							}
						}
					}
				}
			}
		}
	}
	JOINT LeftUpLeg
	{
		OFFSET 11.394100 -6.187798 -0.413800
		CHANNELS 3 Xrotation Yrotation Zrotation
		JOINT LeftLeg
		{
			OFFSET 0.430247 -32.302673 3.732800
			CHANNELS 3 Xrotation Yrotation Zrotation
			JOINT LeftFoot
			{
				OFFSET -0.430247 -48.264931 -6.423300
				CHANNELS 3 Xrotation Yrotation Zrotation
				JOINT LeftToeBase
				{
					OFFSET 4.230900 -16.068199 23.438400
					CHANNELS 3 Xrotation Yrotation Zrotation
					JOINT LeftToe_End
					{
						OFFSET 4.510700 0.695400 19.974600
						CHANNELS 3 Xrotation Yrotation Zrotation
						End Site
						{
							OFFSET 0.000000 0.000000 0.000000
						}
					}
				}
			}
		}
	}
	JOINT RightUpLeg
	{
		OFFSET -11.333700 -6.187798 -0.413800
		CHANNELS 3 Xrotation Yrotation Zrotation
		JOINT RightLeg
		{
			OFFSET -0.430392 -32.302628 3.733000
			CHANNELS 3 Xrotation Yrotation Zrotation
			JOINT RightFoot
			{
				OFFSET 0.430392 -48.264973 -6.423500
				CHANNELS 3 Xrotation Yrotation Zrotation
				JOINT RightToeBase
				{
					OFFSET -4.230900 -16.068199 23.438400
					CHANNELS 3 Xrotation Yrotation Zrotation
					JOINT RightToe_End
					{
						OFFSET -4.510700 0.695400 19.974600
						CHANNELS 3 Xrotation Yrotation Zrotation
						End Site
						{
							OFFSET 0.000000 0.000000 0.000000
						}
					}
				}
			}
		}
	}
}
MOTION
Frames: 6
Frame Time: 0.016667
1.270288 98.299812 -50.262600 168.769931 -64.206244 168.177098 4.918837 1.883556 4.678946 -5.203245 2.467255 -3.030995 0.000000 0.000000 0.000000 -5.047560 2.231933 -3.347159 0.930297 23.548867 10.139633 4.348299 27.823728 -14.089296 0.000000 -0.000003 -0.000000 1.079196 -0.344052 0.608159 0.000000 0.000000 0.000000 7.615788 0.677541 -69.161703 8.512039 -19.175271 -8.473997 -0.253745 5.731260 10.881025 -1.204160 -0.037720 2.325159 0.318658 1.093445 0.433692 1.367140 3.087624 0.738677 0.000000 -0.000000 0.000001 0.780512 2.266542 -9.845913 -0.039192 0.057428 -8.823552 0.000000 0.000000 0.000000 -0.057944 1.143069 -15.947757 -0.014715 -0.043606 -10.491590 -0.000000 0.000000 0.000000 -0.956181 0.304862 -20.266071 0.002272 0.016825 -13.465764 0.000002 -0.000000 -0.000002 -2.256739 -1.970761 -24.904422 -0.016578 -0.001859 -16.389717 -0.000003 0.000000 0.000001 2.374282 -3.484720 16.761260 0.000000 0.000000 0.000000 13.068536 30.203998 51.934781 13.595697 26.328836 -0.878555 -25.360443 0.110620 -14.410985 2.581839 -11.453548 -2.444543 -0.570749 -0.849119 0.050485 2.109287 -4.858620 -1.153879 0.000000 0.000000 -0.000002 1.440372 0.413075 28.354767 -0.036435 -0.061713 22.129074 0.000001 0.000001 0.000001 1.194444 -2.816510 28.395494 -0.003755 0.018423 22.137615 -0.000001 -0.000003 -0.000001 2.678402 -6.989702 31.433736 -0.003193 0.002750 24.099361 -0.000000 0.000000 -0.000001 1.168950 -9.903091 35.638025 -0.027265 -0.005265 28.957014 0.000000 0.000001 -0.000001 -33.819156 2.062398 15.792051 38.645330 -0.967823 -2.114101 -3.636182 1.445797 -5.424955 -0.140006 5.638435 -4.141078 0.000000 0.000000 -0.000000 -15.570188 -12.205284 8.188114 23.047833 11.546410 1.255075 -10.212799 -0.468658 -12.118373 -2.307847 -8.055626 0.493676 -0.000000 0.000000 -0.000000 
0.936942 98.334000 -51.028816 170.005280 -61.293127 169.544215 5.145089 2.137925 4.496783 -5.105463 2.660213 -2.985249 0.000000 0.000000 0.000000 -4.948701 2.420739 -3.321705 1.055484 22.542833 10.042754 3.926670 26.820365 -13.626398 -0.000000 -0.000001 -0.000000 1.084987 -0.270531 0.764947 0.000000 0.000000 0.000000 7.759411 1.002653 -69.954565 9.038382 -17.908100 -8.643447 -0.335431 5.197241 10.898120 -1.478756 -0.052884 2.856641 0.423954 1.338725 0.492539 1.663860 3.799691 0.897496 -0.000001 0.000000 -0.000000 0.776357 2.123270 -10.418619 -0.038691 0.058181 -9.704960 0.000001 -0.000000 0.000000 -0.070169 1.239220 -17.072153 -0.015196 -0.043100 -11.179836 -0.000000 0.000000 -0.000001 -0.932955 0.718955 -21.232294 0.001389 0.016844 -14.059874 0.000002 0.000001 -0.000001 -2.179911 -1.508446 -25.735057 -0.015921 -0.001818 -16.850611 0.000000 0.000001 -0.000000 2.402564 -3.497400 16.751804 0.000000 0.000000 0.000000 12.583211 31.110890 52.037750 13.766152 26.236993 -1.171540 -25.494562 0.419211 -14.057182 2.689871 -11.385035 -2.336693 -0.589405 -0.816124 0.061323 2.078747 -4.785315 -1.138262 0.000000 -0.000000 -0.000001 1.424560 0.474533 28.171921 -0.036557 -0.061454 21.925411 -0.000001 -0.000002 -0.000000 1.214514 -2.843247 28.205628 -0.004094 0.018562 22.050444 -0.000001 -0.000000 -0.000002 2.743102 -7.190479 31.250479 -0.003104 0.002945 24.042213 0.000000 0.000001 0.000002 1.304916 -10.155925 35.440820 -0.027394 -0.004617 28.751763 0.000001 -0.000000 -0.000001 -33.828841 -1.096232 13.398675 38.305665 -1.454813 -2.088146 -3.338871 1.783876 -6.488048 -1.018108 7.016952 -3.149563 0.000000 0.000000 0.000000 -14.966401 -10.984455 8.536761 22.623680 13.783404 1.827325 -9.863973 -0.919313 -13.133989 -2.374894 -7.985157 0.467722 -0.000000 0.000001 0.000000 
0.587684 98.386246 -51.823746 171.028620 -58.398712 170.718215 5.341648 2.356422 4.212088 -4.955286 2.804416 -2.879610 0.000000 0.000000 0.000000 -4.801089 2.565716 -3.228154 1.136429 21.321725 9.663834 3.243143 25.509228 -12.836997 0.000000 -0.000001 0.000000 1.090521 -0.182191 0.891429 0.000000 0.000000 0.000000 7.710989 1.275668 -70.804596 9.524833 -16.278607 -8.901416 -0.390374 4.458863 10.944919 -1.769599 -0.071478 3.420117 0.535339 1.598847 0.554605 1.976559 4.555684 1.061947 -0.000000 -0.000001 0.000000 0.768849 1.971741 -11.025887 -0.038090 0.058893 -10.639441 0.000002 -0.000000 -0.000000 -0.080010 1.342131 -18.264399 -0.015679 -0.042501 -11.909587 -0.000000 0.000000 0.000000 -0.893371 1.157126 -22.256299 0.000507 0.016838 -14.689857 -0.000002 0.000001 0.000002 -2.084354 -1.021313 -26.615709 -0.015226 -0.001722 -17.339257 0.000002 0.000000 0.000001 2.414809 -3.468808 16.571753 0.000000 0.000000 0.000000 11.779243 32.237803 52.296528 13.724230 25.885317 -1.445391 -25.372606 0.810140 -13.612447 2.749183 -11.300860 -2.257980 -0.586611 -0.825569 0.059892 2.064366 -4.749256 -1.130735 0.000000 0.000000 0.000000 1.416261 0.519343 27.896014 -0.036859 -0.061119 21.624314 -0.000001 0.000001 0.000000 1.233995 -2.874385 27.920242 -0.004608 0.018911 21.892959 0.000000 -0.000002 -0.000002 2.793567 -7.399032 30.970905 -0.003029 0.003474 23.922106 0.000000 -0.000000 0.000003 1.432157 -10.393854 35.139691 -0.027698 -0.003771 28.434101 0.000001 0.000001 -0.000002 -33.720934 -4.563358 10.895590 37.556225 -1.512890 -2.011873 -3.152066 2.104483 -6.835950 -1.335007 9.262298 -4.252156 0.000000 0.000001 -0.000000 -14.294511 -9.766655 8.821375 22.126616 15.973603 2.390964 -9.493847 -1.340663 -14.100015 -2.450162 -7.915201 0.444012 0.000000 0.000001 0.000000 
0.229826 98.441902 -52.629772 171.883841 -55.510607 171.726870 5.529962 2.556641 3.881147 -4.780149 2.924332 -2.745297 0.000000 0.000000 0.000000 -4.630334 2.689130 -3.101842 1.155759 19.904771 9.110441 2.411540 23.932081 -11.826765 -0.000000 0.000002 -0.000000 1.095807 -0.075121 0.979791 0.000000 0.000000 0.000000 7.590592 1.535476 -71.647366 10.023766 -14.551988 -9.196454 -0.424804 3.666687 10.967946 -2.073311 -0.093875 4.009391 0.651487 1.871045 0.618954 2.301614 5.347028 1.229648 0.000000 0.000001 0.000001 0.757635 1.813756 -11.660789 -0.037468 0.059738 -11.616589 -0.000002 0.000000 -0.000001 -0.085266 1.450670 -19.510849 -0.016155 -0.041863 -12.672602 -0.000000 -0.000001 0.000001 -0.835508 1.613775 -23.326406 -0.000327 0.016830 -15.348494 -0.000001 0.000001 0.000001 -1.968862 -0.515658 -27.536512 -0.014505 -0.001588 -17.850250 0.000002 0.000002 -0.000002 2.421329 -3.425020 16.328213 0.000000 0.000000 0.000000 10.845205 33.443878 52.653624 13.606743 25.436948 -1.713349 -25.161068 1.234099 -13.135279 2.763434 -11.202526 -2.206397 -0.565041 -0.874833 0.047919 2.063677 -4.748177 -1.130097 0.000000 -0.000001 0.000000 1.414817 0.548683 27.535102 -0.037212 -0.060784 21.233842 0.000002 -0.000001 0.000000 1.252674 -2.909465 27.547278 -0.005346 0.019414 21.671084 -0.000001 0.000003 -0.000000 2.829544 -7.614540 30.603134 -0.002883 0.004146 23.744116 0.000001 -0.000001 -0.000001 1.549885 -10.618321 34.743540 -0.028200 -0.002628 28.013415 0.000001 0.000000 0.000001 -33.824787 -7.658124 8.725179 36.504014 -1.508091 -1.894683 -2.744551 2.414795 -7.688560 -1.351214 10.505788 -4.805920 -0.000000 -0.000000 0.000000 -13.604257 -8.569222 9.043533 21.616507 18.118733 2.943405 -9.116614 -1.712711 -15.012841 -2.532330 -7.847132 0.422485 -0.000000 0.000001 0.000000 
-0.138055 98.496498 -53.449177 172.608374 -52.632994 172.602241 5.709088 2.738050 3.512764 -4.581748 3.020531 -2.584858 0.000000 0.000000 0.000000 -4.438204 2.790703 -2.945378 1.042705 18.117335 8.309467 1.368295 21.872817 -10.460869 0.000000 -0.000001 0.000000 1.101103 0.072351 0.986376 0.000000 0.000000 0.000000 7.407084 1.790271 -72.430454 10.581911 -12.799773 -9.501889 -0.425672 2.866463 10.912345 -2.386461 -0.119875 4.617797 0.771159 2.152166 0.684710 2.635252 6.165214 1.398341 -0.000001 0.000001 0.000000 0.742070 1.651260 -12.316430 -0.036830 0.060592 -12.625614 0.000002 -0.000000 0.000001 -0.085739 1.563604 -20.797987 -0.016603 -0.041170 -13.460503 0.000000 -0.000002 -0.000001 -0.758101 2.083322 -24.431324 -0.001147 0.016829 -16.028615 0.000002 0.000000 0.000001 -1.833064 0.002147 -28.487628 -0.013752 -0.001431 -18.377971 -0.000001 0.000000 0.000002 2.426403 -3.376582 16.065228 0.000000 0.000000 0.000000 9.859335 34.669743 53.082605 13.469792 24.958411 -1.980117 -24.928228 1.669659 -12.649249 2.736018 -11.091758 -2.179835 -0.526077 -0.960412 0.026228 2.075524 -4.779232 -1.135766 0.000000 0.000000 -0.000002 1.419661 0.563466 27.096863 -0.037589 -0.060332 20.762223 0.000002 -0.000003 -0.000001 1.270189 -2.948325 27.094860 -0.006065 0.019241 21.390537 -0.000001 -0.000003 -0.000002 2.850807 -7.835920 30.155012 -0.002763 0.004992 23.513281 0.000000 0.000001 0.000001 1.657340 -10.830477 34.260922 -0.028726 -0.001284 27.499130 0.000001 -0.000000 -0.000002 -34.371079 -10.454749 6.613269 35.375182 -2.114158 -1.807765 -1.943882 2.642975 -8.316350 -1.412004 11.767893 -5.709867 0.000000 0.000001 -0.000000 -12.899087 -7.400153 9.212817 21.108976 20.227165 3.475840 -8.742791 -2.041076 -15.875730 -2.619960 -7.781397 0.403160 -0.000000 -0.000002 -0.000000 
-0.517506 98.565361 -54.276936 173.245344 -49.746593 173.403026 5.862438 2.890426 3.063018 -4.340193 3.082391 -2.375847 0.000000 0.000000 0.000000 -4.206306 2.861867 -2.734081 0.950730 16.316501 7.563393 0.407511 19.778512 -9.101177 0.000000 -0.000000 0.000000 1.107254 0.303887 0.807197 0.000000 0.000000 0.000000 7.408443 2.071013 -72.955163 10.915624 -11.563111 -9.734077 -0.414515 2.464935 10.981777 -2.705630 -0.149716 5.239045 0.893221 2.439420 0.751136 2.974060 7.001610 1.565863 -0.000000 -0.000000 -0.000002 0.722463 1.485955 -12.985907 -0.036132 0.061428 -13.655972 0.000003 0.000000 -0.000001 -0.080997 1.679610 -22.112223 -0.017101 -0.040540 -14.264975 -0.000002 0.000002 -0.000001 -0.660626 2.560058 -25.559398 -0.001948 0.016861 -16.723112 -0.000000 -0.000000 -0.000000 -1.677149 0.525899 -29.459361 -0.012932 -0.001318 -18.916788 0.000003 0.000001 0.000001 2.431050 -3.326005 15.793142 0.000000 0.000000 0.000000 8.839828 35.899249 53.578131 13.326716 24.465258 -2.246129 -24.690494 2.110739 -12.160347 2.670560 -10.969972 -2.176156 -0.470162 -1.078444 -0.005073 2.100169 -4.839361 -1.147855 0.000001 -0.000000 0.000000 1.430126 0.564772 26.589151 -0.038056 -0.059821 20.217795 0.000001 -0.000001 0.000000 1.286443 -2.990659 26.571056 -0.006875 0.018939 21.057101 0.000000 -0.000002 0.000001 2.857419 -8.061970 29.634534 -0.002589 0.005038 23.234791 0.000002 0.000002 -0.000000 1.754388 -11.031356 33.700724 -0.029330 0.000195 26.900700 -0.000000 0.000001 -0.000000 -34.746306 -12.734033 4.844836 34.081018 -3.048857 -1.755346 -1.837352 2.935296 -8.903594 -0.585120 12.222718 -8.106426 -0.000000 -0.000001 0.000001 -12.146444 -6.255263 9.307103 20.560543 22.312121 3.984618 -8.352748 -2.314080 -16.676329 -2.711724 -7.717780 0.385993 0.000000 0.000003 0.000000 
